<?xml version="1.0" standalone="no"?>
<!DOCTYPE svg PUBLIC "-//W3C//DTD SVG 20010904//EN"
 "http://www.w3.org/TR/2001/REC-SVG-20010904/DTD/svg10.dtd">
<svg version="1.0" xmlns="http://www.w3.org/2000/svg"
 width="1024.000000pt" height="1024.000000pt" viewBox="0 0 1024.000000 1024.000000"
 preserveAspectRatio="xMidYMid meet">

<g transform="translate(0.000000,1024.000000) scale(0.100000,-0.100000)"
fill="#000000" stroke="none">
<path d="M2880 7699 c-307 -9 -597 -25 -820 -44 -267 -24 -326 -37 -443 -97
-131 -68 -229 -199 -277 -368 -24 -89 -54 -321 -71 -555 -16 -224 -16 -846 0
-1055 14 -191 45 -428 67 -515 65 -256 252 -417 529 -454 258 -35 1086 -71
1633 -71 561 0 1328 29 1592 61 294 35 460 151 556 388 25 62 61 218 66 283
l2 37 1396 3 1395 3 78 28 c188 66 305 183 369 367 22 63 23 76 23 465 0 385
-1 403 -22 470 -29 91 -84 175 -162 248 -74 68 -136 101 -239 128 -73 18 -124
19 -1463 19 l-1389 0 -6 28 c-51 225 -95 321 -187 410 -95 91 -202 138 -367
161 -393 55 -1474 84 -2260 60z m129 -808 c36 -21 199 -116 361 -211 162 -95
354 -208 425 -250 72 -42 207 -121 300 -175 94 -54 176 -104 184 -111 20 -18
7 -56 -26 -75 -62 -35 -520 -305 -878 -517 -208 -123 -394 -231 -412 -239 -25
-10 -39 -11 -53 -3 -20 11 -20 24 -20 803 0 604 3 796 12 805 19 19 38 15 107
-27z m5544 -49 c105 -43 196 -133 234 -232 25 -66 32 -751 9 -831 -33 -110
-118 -208 -224 -257 l-57 -27 -1388 -5 -1388 -5 8 140 c19 342 4 1130 -23
1228 -5 17 60 17 1383 15 l1388 -3 58 -23z"/>
<path d="M7895 6656 c-166 -40 -286 -171 -317 -346 -22 -127 24 -273 116 -366
130 -130 316 -160 481 -78 l49 25 111 -115 c77 -81 117 -116 132 -116 28 0 81
48 84 75 3 45 -5 59 -102 160 l-102 105 27 60 c94 209 12 450 -190 557 -93 49
-192 63 -289 39z m202 -175 c130 -59 189 -218 129 -346 -97 -206 -373 -206
-467 0 -25 54 -25 166 0 220 20 45 87 110 135 131 46 20 153 17 203 -5z"/>
<path d="M2193 4031 c-91 -42 -98 -151 -14 -208 59 -40 138 -25 176 33 21 33
22 107 0 140 -31 48 -100 63 -162 35z"/>
<path d="M1482 4014 c-147 -39 -238 -145 -250 -289 -7 -93 18 -166 76 -224 57
-57 123 -90 268 -132 60 -17 126 -40 147 -51 103 -52 97 -178 -10 -224 -38
-16 -123 -18 -175 -4 -52 15 -96 55 -109 101 l-12 39 -109 0 -108 0 0 -33 c0
-93 74 -200 177 -254 82 -44 152 -57 277 -51 97 4 112 8 180 42 138 68 192
159 184 310 -5 96 -27 145 -88 199 -53 49 -116 77 -275 126 -146 45 -171 59
-191 107 -41 99 63 179 199 153 64 -12 105 -42 126 -93 l18 -41 103 3 102 3
-6 51 c-4 28 -13 66 -21 84 -18 44 -78 108 -130 138 -89 53 -260 71 -373 40z"/>
<path d="M4780 3465 l0 -555 105 0 105 0 -2 553 -3 552 -102 3 -103 3 0 -556z"/>
<path d="M7497 4014 c-4 -4 -7 -254 -7 -556 l0 -549 103 3 102 3 3 38 c2 20 5
37 7 37 2 0 17 -12 32 -26 59 -55 100 -69 203 -69 89 0 99 2 158 34 138 75
212 211 212 391 0 182 -80 324 -219 388 -46 22 -71 26 -141 27 -97 0 -161 -23
-218 -78 l-34 -32 3 195 4 195 -101 3 c-55 1 -103 0 -107 -4z m489 -485 c17
-10 44 -42 60 -71 26 -48 29 -62 29 -143 0 -80 -3 -96 -28 -141 -36 -65 -85
-94 -157 -94 -69 0 -125 31 -152 84 -54 105 -33 283 40 349 53 48 144 55 208
16z"/>
<path d="M5804 3997 c-3 -8 -4 -52 -2 -98 l3 -84 168 -3 167 -2 0 -450 0 -450
110 0 110 0 0 450 0 450 160 0 160 0 0 100 0 100 -435 0 c-354 0 -437 -3 -441
-13z"/>
<path d="M2796 3720 c-27 -10 -64 -34 -82 -51 l-33 -32 -3 39 -3 39 -92 3 -93
3 0 -406 0 -405 105 0 104 0 3 268 c3 295 8 320 67 355 40 24 115 22 156 -3
59 -37 65 -68 65 -361 l0 -260 108 3 107 3 1 260 c1 214 4 267 17 297 41 97
195 106 244 15 16 -28 18 -67 21 -305 l3 -273 107 3 107 3 3 245 c1 137 -2
275 -8 313 -12 78 -45 149 -87 189 -103 98 -319 102 -426 7 l-44 -38 -24 25
c-69 75 -223 105 -323 64z"/>
<path d="M4176 3720 c-27 -10 -66 -36 -87 -56 l-38 -37 -3 44 -3 44 -97 3 -98
3 0 -556 0 -555 105 0 105 0 0 185 c0 102 4 185 8 185 5 0 17 -9 28 -21 44
-48 93 -64 199 -64 95 0 103 2 163 34 140 76 204 199 204 396 1 180 -83 327
-220 387 -70 30 -202 35 -266 8z m164 -185 c78 -41 120 -186 89 -310 -13 -52
-66 -117 -109 -135 -43 -18 -144 -9 -178 17 -98 72 -111 289 -24 392 49 59
147 75 222 36z"/>
<path d="M5379 3727 c-135 -38 -229 -141 -264 -289 -52 -223 34 -432 213 -516
51 -24 69 -27 167 -27 101 0 114 2 162 27 72 38 119 82 154 142 47 84 45 86
-72 86 -95 0 -102 -2 -120 -24 -44 -56 -132 -71 -207 -35 -35 18 -49 32 -68
73 -13 28 -24 61 -24 74 l0 22 271 0 271 0 -4 103 c-3 90 -8 110 -37 175 -60
129 -158 192 -310 198 -52 2 -104 -1 -132 -9z m186 -171 c39 -17 61 -47 80
-111 l14 -45 -169 0 c-94 0 -170 4 -170 9 0 18 24 78 43 105 37 52 130 72 202
42z"/>
<path d="M8639 3722 c-80 -27 -141 -73 -187 -141 -57 -85 -75 -163 -70 -297 3
-97 7 -116 35 -174 41 -84 102 -145 183 -184 60 -29 73 -31 170 -31 94 0 111
3 160 27 73 36 145 111 170 176 l20 52 -103 0 c-97 0 -103 -2 -127 -27 -65
-69 -174 -71 -243 -5 -23 22 -57 102 -57 134 0 4 122 8 270 8 209 0 270 3 271
13 5 37 -4 168 -13 202 -27 107 -110 203 -204 238 -73 28 -205 32 -275 9z
m211 -175 c38 -25 65 -66 75 -114 l7 -33 -172 0 -171 0 6 23 c30 100 83 146
171 147 37 0 60 -6 84 -23z"/>
<path d="M2140 3315 l0 -405 105 0 105 0 0 405 0 405 -105 0 -105 0 0 -405z"/>
<path d="M6622 3418 c3 -257 7 -310 21 -349 23 -60 68 -113 125 -147 43 -25
56 -27 147 -27 109 0 154 15 204 69 29 31 41 26 41 -20 l0 -34 100 0 100 0 0
405 0 406 -107 -3 -108 -3 -5 -270 c-5 -263 -6 -271 -28 -303 -31 -42 -70 -62
-127 -62 -64 0 -103 23 -126 73 -17 38 -19 68 -19 305 l0 262 -111 0 -110 0 3
-302z"/>
</g>
</svg>
